<svg xmlns="http://www.w3.org/2000/svg" viewBox="0 0 520 320" width="520" height="320">
  <!-- ===== LOGO GZS - Gestão do Zero ao Sucesso ===== -->
  
  <!-- Letra G - Verde com formato arredondado/cápsula -->
  <path d="M40 70 C40 35, 70 15, 105 15 L165 15 
           C175 15, 175 15, 175 15 
           L175 85 C175 85, 175 90, 170 90 
           L120 90 C115 90, 115 85, 115 85 
           L115 85 
           L155 85 L155 35 
           L105 35 C80 35, 60 50, 60 70 
           L60 130 C60 150, 80 165, 105 165 
           L155 165 L155 115 
           L120 115 C115 115, 115 110, 115 110 
           L115 110 C115 105, 115 100, 120 100 
           L170 100 C175 100, 175 105, 175 110 
           L175 170 C175 175, 170 180, 165 180 
           L105 180 C70 180, 40 160, 40 130 Z" 
        fill="#2E9B55"/>
  
  <!-- Letra Z - Verde com ângulos dinâmicos -->
  <path d="M155 15 L300 15 C305 15, 308 18, 308 23 
           L308 23 C308 26, 306 29, 304 30 
           L195 165 L300 165 
           C305 165, 308 168, 308 173 
           L308 173 C308 178, 305 180, 300 180 
           L155 180 C150 180, 147 177, 147 172 
           L147 172 C147 169, 149 166, 151 165 
           L260 30 L155 30 
           C150 30, 147 27, 147 22 
           L147 22 C147 18, 150 15, 155 15 Z" 
        fill="#2E9B55"/>
  
  <!-- Letra S - Azul escuro com formato arredondado -->
  <path d="M320 15 L420 15 C455 15, 480 35, 480 60 
           L480 70 C480 88, 468 100, 450 105 
           C468 110, 480 122, 480 140 
           L480 145 C480 170, 455 185, 420 185 
           L320 185 C315 185, 312 182, 312 177 
           L312 177 C312 172, 315 170, 320 170 
           L420 170 C445 170, 460 158, 460 145 
           L460 140 C460 127, 445 115, 420 115 
           L350 115 C345 115, 342 112, 342 107 
           L342 107 C342 102, 345 100, 350 100 
           L420 100 C445 100, 460 88, 460 70 
           L460 60 C460 45, 445 35, 420 35 
           L320 35 C315 35, 312 32, 312 27 
           L312 27 C312 22, 315 15, 320 15 Z" 
        fill="#1D237E"/>
  
  <!-- Texto "Gestão do Zero" -->
  <text x="260" y="240" text-anchor="middle" font-family="Poppins, sans-serif" font-size="36" font-weight="400" fill="#1D237E">Gestão do Zero</text>
  
  <!-- Texto "ao Sucesso" com triângulo -->
  <text x="245" y="280" text-anchor="middle" font-family="Poppins, sans-serif" font-size="36" font-weight="400" fill="#1D237E">ao Sucesso</text>
  
  <!-- Triângulo/seta apontando para cima -->
  <polygon points="330,280 337,266 344,280" fill="#1D237E"/>
</svg>
